<svg width="20" height="19" viewBox="0 0 20 19" fill="none" xmlns="http://www.w3.org/2000/svg">
<path fill-rule="evenodd" clip-rule="evenodd" d="M6.25 3.75C6.25 2.75544 6.64509 1.80161 7.34835 1.09835C8.05161 0.395088 9.00544 0 10 0C10.9946 0 11.9484 0.395088 12.6517 1.09835C13.3549 1.80161 13.75 2.75544 13.75 3.75C13.75 4.74456 13.3549 5.69839 12.6517 6.40165C11.9484 7.10491 10.9946 7.5 10 7.5C9.00544 7.5 8.05161 7.10491 7.34835 6.40165C6.64509 5.69839 6.25 4.74456 6.25 3.75ZM13.75 6.75C13.75 5.95435 14.0661 5.19129 14.6287 4.62868C15.1913 4.06607 15.9544 3.75 16.75 3.75C17.5456 3.75 18.3087 4.06607 18.8713 4.62868C19.4339 5.19129 19.75 5.95435 19.75 6.75C19.75 7.54565 19.4339 8.30871 18.8713 8.87132C18.3087 9.43393 17.5456 9.75 16.75 9.75C15.9544 9.75 15.1913 9.43393 14.6287 8.87132C14.0661 8.30871 13.75 7.54565 13.75 6.75ZM0.25 6.75C0.25 5.95435 0.566071 5.19129 1.12868 4.62868C1.69129 4.06607 2.45435 3.75 3.25 3.75C4.04565 3.75 4.80871 4.06607 5.37132 4.62868C5.93393 5.19129 6.25 5.95435 6.25 6.75C6.25 7.54565 5.93393 8.30871 5.37132 8.87132C4.80871 9.43393 4.04565 9.75 3.25 9.75C2.45435 9.75 1.69129 9.43393 1.12868 8.87132C0.566071 8.30871 0.25 7.54565 0.25 6.75ZM4.31 12.117C4.91995 11.161 5.76108 10.3743 6.75562 9.82944C7.75016 9.28463 8.86601 8.99936 10 9C10.9498 8.99913 11.8891 9.19888 12.7564 9.58616C13.6237 9.97344 14.3994 10.5395 15.0327 11.2474C15.6661 11.9552 16.1428 12.7888 16.4317 13.6936C16.7205 14.5985 16.815 15.5541 16.709 16.498C16.696 16.6153 16.6556 16.7278 16.591 16.8265C16.5263 16.9252 16.4393 17.0073 16.337 17.066C14.4086 18.1725 12.2233 18.7532 10 18.75C7.695 18.75 5.53 18.138 3.663 17.066C3.56069 17.0073 3.47368 16.9252 3.40904 16.8265C3.34441 16.7278 3.30396 16.6153 3.291 16.498C3.12305 14.9646 3.48246 13.4198 4.31 12.118V12.117Z" fill="#FF5400"/>
</svg>
